# xmcd
#
# Track frame offsets: 
#        182
#        1727
#        6887
#        25617
#        33990
#        65662
#        75285
#        76322
#        77597
#        88440
#        94190
#        131945
#        140765
#        166727
#        168635
#        171140
#        176467
#        181935
#        183862
#        188340
#        214900
#        215852
#        221462
#        229757
#        247667
#        252932
#        266875
#
# Disc length: 3633 seconds
#
# Revision: 1
# Processed by: cddbd v1.5.2PL0 Copyright (c) Steve Scherf et al.
# Submitted via: ExactAudioCopy v0.99pb5
#
DISCID=660e2f1b
DTITLE=Akchote, Noel - Soundpage(s)
DYEAR=1993
DGENRE=Jazz
TTITLE0=Mornin'
TTITLE1=SD
TTITLE2=CREEPY NURSERY
TTITLE3=CNN
TTITLE4=REBOP
TTITLE5=blunt
TTITLE6=Japon
TTITLE7=Godard
TTITLE8=JLG
TTITLE9=tounez
TTITLE10=WEIRDEST TABOO
TTITLE11=search for
TTITLE12=MOTEL ROND
TTITLE13=commercial
TTITLE14=advertising
TTITLE15=Dnevnik 1
TTITLE16=CBCB
TTITLE17=Depardon
TTITLE18=New-York
TTITLE19=MARCHEURS
TTITLE20=CIA
TTITLE21=KC1
TTITLE22=Dnevnik 2
TTITLE23=SPLASH!
TTITLE24=Pialat
TTITLE25=Beograd
TTITLE26=Home
EXTD=YEAR: 1993
EXTT0=
EXTT1=
EXTT2=
EXTT3=
EXTT4=
EXTT5=
EXTT6=
EXTT7=
EXTT8=
EXTT9=
EXTT10=
EXTT11=
EXTT12=
EXTT13=
EXTT14=
EXTT15=
EXTT16=
EXTT17=
EXTT18=
EXTT19=
EXTT20=
EXTT21=
EXTT22=
EXTT23=
EXTT24=
EXTT25=
EXTT26=
PLAYORDER=
